<svg width="221" height="34" viewBox="0 0 221 34" fill="none" xmlns="http://www.w3.org/2000/svg">
<path d="M130.249 33.209H150.954H151.756L135.171 15.7871L146.406 3.98509H131.158L127.146 8.20008H136.508L129.286 15.7871L142.601 29.0599H130.249L124.123 22.2501L113.237 33.2021L124.123 25.3411L130.249 33.209Z" fill="#F4F4F4"/>
<path d="M117.484 0H97.8247H97.0276L113.499 16.4717L102.341 27.6299H117.484L121.47 23.6448H112.171L119.344 16.4717L107.655 4.7821H117.484L124.105 11.361L135.55 0L124.105 8.43859L117.484 0Z" fill="#1B4B66"/>
<path d="M41.1889 28.9862C40.382 28.9862 39.6458 28.7946 38.9801 28.4113C38.3346 28.0079 37.8102 27.4835 37.4067 26.838C37.0235 26.1723 36.8318 25.4361 36.8318 24.6292V3.48169L41.1889 4.01303V24.4174C41.1889 24.4779 41.199 24.5283 41.2191 24.5687C41.2595 24.5889 41.3099 24.5989 41.3704 24.5989L54.0179 23.0049C54.0784 23.0049 54.1188 22.9948 54.1389 22.9747C54.1793 22.9343 54.1994 22.8839 54.1994 22.8234V5.51618L58.617 6.04752V23.0352C58.617 23.842 58.4153 24.5783 58.0118 25.2439C57.6084 25.8894 57.0739 26.4139 56.4082 26.8173C55.7627 27.2006 55.0466 27.3922 54.26 27.3922L41.1889 28.9862Z" fill="#1B4B66"/>
<path d="M61.8051 26.1687V6.29922L76.2325 7.92122C76.9016 7.92122 77.5038 8.08873 78.0391 8.42375C78.5911 8.74201 79.0344 9.17753 79.3689 9.73031C79.7035 10.2831 79.8708 10.8861 79.8708 11.5394V16.3134C79.8708 16.9666 79.7035 17.5697 79.3689 18.1224C79.0344 18.6585 78.5911 19.094 78.0391 19.429C77.5038 19.7473 76.9016 19.9064 76.2325 19.9064L65.4182 19.1135V25.7143L61.8051 26.1687ZM65.5687 15.4451L76.0569 16.2631C76.1071 16.2631 76.1405 16.2547 76.1573 16.238C76.1907 16.2045 76.2074 16.171 76.2074 16.1375V11.2357C76.2074 11.1855 76.1907 11.152 76.1573 11.1352C76.1405 11.1017 76.1071 11.085 76.0569 11.085L65.5687 9.91739C65.5186 9.91739 65.4767 9.93414 65.4433 9.96765C65.4266 9.9844 65.4182 10.0179 65.4182 10.0682V15.3195C65.4182 15.353 65.4266 15.3865 65.4433 15.42C65.4767 15.4367 65.5186 15.4451 65.5687 15.4451Z" fill="#1B4B66"/>
<path d="M83.0589 23.6098V8.75317L94.2171 10.0256V12.4868L85.5124 11.2143V14.897H92.5199V17.3751H85.5124V21.1487L94.2171 19.7854V22.2465L83.0589 23.6098Z" fill="#1B4B66"/>
<path d="M104.924 21.086L102.094 17.6653H104.605L106.943 20.4454V20.8622L104.924 21.086ZM97.4052 21.9948V10.48L105.043 11.298C105.397 11.298 105.716 11.3867 106 11.5641C106.292 11.7326 106.527 11.9631 106.704 12.2558C106.881 12.5484 106.969 12.8677 106.969 13.2135V15.9227C106.969 16.2686 106.881 16.5878 106.704 16.8805C106.527 17.1642 106.292 17.3948 106 17.5722C105.716 17.7407 105.397 17.8249 105.043 17.8249L99.318 17.8382V21.7711L97.4052 21.9948ZM99.3977 15.8961H104.95C104.977 15.8961 104.995 15.8917 105.003 15.8828C105.021 15.8651 105.03 15.8473 105.03 15.8296V13.2933C105.03 13.2667 105.021 13.249 105.003 13.2401C104.995 13.2224 104.977 13.2135 104.95 13.2135L99.3977 12.3955C99.3711 12.3955 99.349 12.4044 99.3313 12.4221C99.3224 12.431 99.318 12.4488 99.318 12.4754V15.8296C99.318 15.8473 99.3224 15.8651 99.3313 15.8828C99.349 15.8917 99.3711 15.8961 99.3977 15.8961Z" fill="#1B4B66"/>
<mask id="path-7-outside-1_682_4070" maskUnits="userSpaceOnUse" x="111.171" y="5.64182" width="35" height="23" fill="black">
<rect fill="white" x="111.171" y="5.64182" width="35" height="23"/>
<path fill-rule="evenodd" clip-rule="evenodd" d="M112.171 6.64182H117.219L124.126 13.5493L128.377 9.29854H133.425L142.488 9.29854C142.93 9.29854 143.331 9.4117 143.694 9.63801C144.067 9.85301 144.367 10.1472 144.593 10.5206C144.819 10.8827 144.933 11.2901 144.933 11.7427V14.0851C144.933 14.2322 144.921 14.3736 144.899 14.5094C144.876 14.6339 144.842 14.7584 144.797 14.8828C144.978 15.1205 145.125 15.3807 145.238 15.6636C145.351 15.9352 145.408 16.2124 145.408 16.4953V19.0753C145.408 19.5279 145.295 19.9409 145.068 20.3143C144.842 20.6765 144.542 20.9707 144.169 21.197C143.807 21.412 143.399 21.5195 142.947 21.5195H136.368V19.0583H142.828C142.862 19.0583 142.884 19.0527 142.896 19.0413C142.918 19.0187 142.93 18.9904 142.93 18.9565V16.6311C142.93 16.6085 142.918 16.5858 142.896 16.5632C142.884 16.5406 142.862 16.5293 142.828 16.5293H136.368V14.0681H142.353C142.375 14.0681 142.398 14.0624 142.421 14.0511C142.443 14.0285 142.455 14.0059 142.455 13.9832V11.8615C142.455 11.8276 142.443 11.805 142.421 11.7936C142.398 11.771 142.375 11.7597 142.353 11.7597H136.368H130.964L126.517 16.206L137.941 27.6299H132.628L124.126 19.1284L121.204 22.0508H115.89L121.735 16.206L112.171 6.64182Z"/>
</mask>
<path fill-rule="evenodd" clip-rule="evenodd" d="M112.171 6.64182H117.219L124.126 13.5493L128.377 9.29854H133.425L142.488 9.29854C142.93 9.29854 143.331 9.4117 143.694 9.63801C144.067 9.85301 144.367 10.1472 144.593 10.5206C144.819 10.8827 144.933 11.2901 144.933 11.7427V14.0851C144.933 14.2322 144.921 14.3736 144.899 14.5094C144.876 14.6339 144.842 14.7584 144.797 14.8828C144.978 15.1205 145.125 15.3807 145.238 15.6636C145.351 15.9352 145.408 16.2124 145.408 16.4953V19.0753C145.408 19.5279 145.295 19.9409 145.068 20.3143C144.842 20.6765 144.542 20.9707 144.169 21.197C143.807 21.412 143.399 21.5195 142.947 21.5195H136.368V19.0583H142.828C142.862 19.0583 142.884 19.0527 142.896 19.0413C142.918 19.0187 142.93 18.9904 142.93 18.9565V16.6311C142.93 16.6085 142.918 16.5858 142.896 16.5632C142.884 16.5406 142.862 16.5293 142.828 16.5293H136.368V14.0681H142.353C142.375 14.0681 142.398 14.0624 142.421 14.0511C142.443 14.0285 142.455 14.0059 142.455 13.9832V11.8615C142.455 11.8276 142.443 11.805 142.421 11.7936C142.398 11.771 142.375 11.7597 142.353 11.7597H136.368H130.964L126.517 16.206L137.941 27.6299H132.628L124.126 19.1284L121.204 22.0508H115.89L121.735 16.206L112.171 6.64182Z" fill="#980000"/>
<path d="M117.219 6.64182L117.411 6.44901L117.332 6.36915H117.219V6.64182ZM112.171 6.64182V6.36915H111.513L111.978 6.83462L112.171 6.64182ZM124.126 13.5493L123.933 13.7421L124.126 13.9349L124.319 13.7421L124.126 13.5493ZM128.377 9.29854V9.02587H128.264L128.184 9.10574L128.377 9.29854ZM133.425 9.29854V9.02587V9.29854ZM142.488 9.29854V9.5712V9.29854ZM143.694 9.63801L143.549 9.86938L143.558 9.87431L143.694 9.63801ZM144.593 10.5206L144.36 10.662L144.362 10.6651L144.593 10.5206ZM144.899 14.5094L145.167 14.5582L145.168 14.5542L144.899 14.5094ZM144.797 14.8828L144.541 14.7896L144.49 14.9296L144.58 15.0481L144.797 14.8828ZM145.238 15.6636L144.985 15.7649L144.986 15.7685L145.238 15.6636ZM145.068 20.3143L145.3 20.4589L145.302 20.4557L145.068 20.3143ZM144.169 21.197L144.308 21.4314L144.31 21.4302L144.169 21.197ZM136.368 21.5195H136.095V21.7921H136.368V21.5195ZM136.368 19.0583V18.7856H136.095V19.0583H136.368ZM142.896 16.5632L142.652 16.6851L142.672 16.7247L142.703 16.756L142.896 16.5632ZM136.368 16.5293H136.095V16.8019H136.368V16.5293ZM136.368 14.0681V13.7954H136.095V14.0681H136.368ZM142.421 14.0511L142.542 14.295L142.582 14.2752L142.613 14.2439L142.421 14.0511ZM142.421 11.7936L142.228 11.9864L142.259 12.0177L142.299 12.0375L142.421 11.7936ZM130.964 11.7597V11.487H130.851L130.771 11.5669L130.964 11.7597ZM126.517 16.206L126.324 16.0132L126.132 16.206L126.324 16.3988L126.517 16.206ZM137.941 27.6299V27.9026H138.599L138.134 27.4371L137.941 27.6299ZM132.628 27.6299L132.435 27.8227L132.515 27.9026H132.628V27.6299ZM124.126 19.1284L124.319 18.9356L124.126 18.7428L123.933 18.9356L124.126 19.1284ZM121.204 22.0508V22.3235H121.317L121.397 22.2436L121.204 22.0508ZM115.89 22.0508L115.698 21.858L115.232 22.3235H115.89V22.0508ZM121.735 16.206L121.928 16.3988L122.121 16.206L121.928 16.0132L121.735 16.206ZM117.219 6.36915H112.171V6.91448H117.219V6.36915ZM124.319 13.3565L117.411 6.44901L117.026 6.83462L123.933 13.7421L124.319 13.3565ZM128.184 9.10574L123.933 13.3565L124.319 13.7421L128.57 9.49134L128.184 9.10574ZM133.425 9.02587H128.377V9.5712H133.425V9.02587ZM142.488 9.02588L133.425 9.02587V9.5712L142.488 9.5712V9.02588ZM143.838 9.40679C143.431 9.15246 142.979 9.02588 142.488 9.02588V9.5712C142.88 9.5712 143.232 9.67094 143.549 9.86923L143.838 9.40679ZM144.826 10.3793C144.577 9.9671 144.243 9.63999 143.83 9.40171L143.558 9.87431C143.891 10.066 144.157 10.3273 144.36 10.662L144.826 10.3793ZM145.205 11.7427C145.205 11.2422 145.079 10.7842 144.824 10.3761L144.362 10.6651C144.56 10.9813 144.66 11.338 144.66 11.7427H145.205ZM145.205 14.0851V11.7427H144.66V14.0851H145.205ZM145.168 14.5542C145.193 14.4027 145.205 14.2462 145.205 14.0851H144.66C144.66 14.2182 144.65 14.3446 144.63 14.4646L145.168 14.5542ZM145.053 14.976C145.103 14.8378 145.141 14.6985 145.167 14.5582L144.63 14.4606C144.611 14.5693 144.581 14.6789 144.541 14.7896L145.053 14.976ZM145.491 15.5623C145.369 15.257 145.21 14.9752 145.014 14.7176L144.58 15.0481C144.746 15.2657 144.881 15.5044 144.985 15.7649L145.491 15.5623ZM145.681 16.4953C145.681 16.175 145.616 15.8622 145.49 15.5587L144.986 15.7685C145.086 16.0082 145.135 16.2499 145.135 16.4953H145.681ZM145.681 19.0753V16.4953H145.135V19.0753H145.681ZM145.302 20.4557C145.555 20.038 145.681 19.5758 145.681 19.0753H145.135C145.135 19.48 145.035 19.8438 144.835 20.173L145.302 20.4557ZM144.31 21.4302C144.719 21.1822 145.05 20.858 145.3 20.4589L144.837 20.1698C144.634 20.4949 144.365 20.7591 144.028 20.9638L144.31 21.4302ZM142.947 21.7921C143.445 21.7921 143.901 21.6733 144.308 21.4314L144.03 20.9625C143.713 21.1506 143.354 21.2468 142.947 21.2468V21.7921ZM136.368 21.7921H142.947V21.2468H136.368V21.7921ZM136.095 19.0583V21.5195H136.641V19.0583H136.095ZM142.828 18.7856H136.368V19.331H142.828V18.7856ZM142.703 18.8485C142.745 18.8068 142.788 18.7935 142.804 18.7895C142.822 18.7851 142.832 18.7856 142.828 18.7856V19.331C142.858 19.331 142.896 19.3287 142.936 19.3186C142.975 19.3089 143.036 19.2872 143.089 19.2341L142.703 18.8485ZM142.657 18.9565C142.657 18.9427 142.659 18.9234 142.668 18.9019C142.677 18.88 142.69 18.862 142.703 18.8485L143.089 19.2341C143.166 19.157 143.202 19.0579 143.202 18.9565H142.657ZM142.657 16.6311V18.9565H143.202V16.6311H142.657ZM142.703 16.756C142.696 16.7489 142.657 16.7063 142.657 16.6311H143.202C143.202 16.5106 143.141 16.4227 143.089 16.3704L142.703 16.756ZM142.828 16.8019C142.816 16.8019 142.786 16.8002 142.748 16.7816C142.707 16.7609 142.673 16.7266 142.652 16.6851L143.14 16.4413C143.066 16.2944 142.924 16.2566 142.828 16.2566V16.8019ZM136.368 16.8019H142.828V16.2566H136.368V16.8019ZM136.095 14.0681V16.5293H136.641V14.0681H136.095ZM142.353 13.7954H136.368V14.3408H142.353V13.7954ZM142.299 13.8072C142.309 13.8019 142.328 13.7954 142.353 13.7954V14.3408C142.422 14.3408 142.487 14.323 142.542 14.295L142.299 13.8072ZM142.182 13.9832C142.182 13.908 142.221 13.8654 142.228 13.8583L142.613 14.2439C142.666 14.1916 142.727 14.1037 142.727 13.9832H142.182ZM142.182 11.8615V13.9832H142.727V11.8615H142.182ZM142.299 12.0375C142.257 12.0168 142.223 11.9825 142.202 11.941C142.184 11.9038 142.182 11.8731 142.182 11.8615H142.727C142.727 11.7655 142.689 11.6232 142.542 11.5498L142.299 12.0375ZM142.353 12.0324C142.277 12.0324 142.235 11.9935 142.228 11.9864L142.613 11.6008C142.561 11.5485 142.473 11.487 142.353 11.487V12.0324ZM136.368 12.0324H142.353V11.487H136.368V12.0324ZM130.964 12.0324H136.368V11.487H130.964V12.0324ZM126.71 16.3988L131.156 11.9525L130.771 11.5669L126.324 16.0132L126.71 16.3988ZM138.134 27.4371L126.71 16.0132L126.324 16.3988L137.748 27.8227L138.134 27.4371ZM132.628 27.9026H137.941V27.3573H132.628V27.9026ZM123.933 19.3212L132.435 27.8227L132.82 27.4371L124.319 18.9356L123.933 19.3212ZM121.397 22.2436L124.319 19.3212L123.933 18.9356L121.011 21.858L121.397 22.2436ZM115.89 22.3235H121.204V21.7781H115.89V22.3235ZM121.542 16.0132L115.698 21.858L116.083 22.2436L121.928 16.3988L121.542 16.0132ZM111.978 6.83462L121.542 16.3988L121.928 16.0132L112.364 6.44901L111.978 6.83462Z" fill="#F4F4F4" mask="url(#path-7-outside-1_682_4070)"/>
<path d="M150.8 21.9529C150.288 21.9529 149.821 21.8314 149.399 21.5883C148.99 21.3325 148.657 20.9999 148.401 20.5906C148.158 20.1685 148.037 19.7016 148.037 19.1899V11.628C148.037 11.1164 148.158 10.6559 148.401 10.2465C148.657 9.82442 148.99 9.49184 149.399 9.2488C149.821 8.99297 150.288 8.86505 150.8 8.86505L159.089 7.59262C159.588 7.59262 160.042 7.72054 160.451 7.97637C160.873 8.21941 161.212 8.55199 161.468 8.97412C161.724 9.38345 161.852 9.84395 161.852 10.3556V20.4623C161.852 20.974 161.724 21.4409 161.468 21.863C161.212 22.2724 160.873 22.6049 160.451 22.8608C160.042 23.1038 159.588 23.2253 159.089 23.2253L150.8 21.9529ZM150.915 19.1707L158.935 20.4432C158.974 20.4432 158.999 20.4368 159.012 20.424C159.038 20.3984 159.05 20.3664 159.05 20.328V10.4899C159.05 10.4516 159.038 10.426 159.012 10.4132C158.999 10.3876 158.974 10.3748 158.935 10.3748L150.915 11.6472C150.876 11.6472 150.845 11.66 150.819 11.6856C150.806 11.6984 150.8 11.724 150.8 11.7624V19.0556C150.8 19.094 150.806 19.126 150.819 19.1515C150.845 19.1643 150.876 19.1707 150.915 19.1707Z" fill="#980000"/>
<path d="M168.096 24.6236C167.444 24.6236 166.842 24.4647 166.29 24.1469C165.738 23.8123 165.303 23.3774 164.985 22.8421C164.667 22.2901 164.508 21.6796 164.508 21.0105V19.4799H168.122V20.8348C168.122 20.885 168.13 20.9268 168.147 20.9603C168.18 20.977 168.214 20.9854 168.247 20.9854L178.76 22.7123C178.794 22.7123 178.827 22.7039 178.861 22.6872C178.894 22.6537 178.911 22.6119 178.911 22.5617V17.3661C178.911 17.3326 178.894 17.3076 178.861 17.2908C178.827 17.2574 178.794 17.2406 178.76 17.2406H168.096C167.444 17.2406 166.842 17.0817 166.29 16.7639C165.738 16.4294 165.303 15.9861 164.985 15.4341C164.667 14.8821 164.508 14.2799 164.508 13.6275V9.89838C164.508 9.22928 164.667 8.62709 164.985 8.09181C165.303 7.5398 165.738 7.10488 166.29 6.78706C166.842 6.45251 167.444 6.28524 168.096 6.28524L178.961 4.74014C179.613 4.74014 180.207 4.90742 180.742 5.24197C181.294 5.55979 181.738 5.99471 182.072 6.54672C182.407 7.082 182.574 7.68419 182.574 8.35329V9.88385H178.911V8.52893C178.911 8.47874 178.894 8.44529 178.861 8.42856C178.827 8.39511 178.794 8.37838 178.76 8.37838L168.247 9.92347C168.214 9.92347 168.18 9.9402 168.147 9.97366C168.13 9.99038 168.122 10.0238 168.122 10.074V13.4519C168.122 13.4853 168.13 13.5188 168.147 13.5522C168.18 13.569 168.214 13.5773 168.247 13.5773H178.961C179.613 13.5773 180.207 13.7446 180.742 14.0791C181.294 14.397 181.738 14.8319 182.072 15.3839C182.407 15.9359 182.574 16.5381 182.574 17.1905V22.7373C182.574 23.4064 182.407 24.017 182.072 24.569C181.738 25.1043 181.294 25.5392 180.742 25.8738C180.207 26.1916 179.613 26.3505 178.961 26.3505L168.096 24.6236Z" fill="#980000"/>
<path d="M190.191 28.0704C189.289 28.0704 188.457 27.8507 187.694 27.4114C186.93 26.9489 186.329 26.3477 185.89 25.6077C185.451 24.8447 185.231 24.0007 185.231 23.0757V20.96H190.226V22.8329C190.226 22.9023 190.237 22.9601 190.26 23.0064C190.306 23.0295 190.353 23.0411 190.399 23.0411L204.932 25.4041C204.978 25.4041 205.024 25.3926 205.071 25.3695C205.117 25.3232 205.14 25.2654 205.14 25.196V18.1983C205.14 18.1521 205.117 18.1174 205.071 18.0943C205.024 18.048 204.978 18.0249 204.932 18.0249H190.191C189.289 18.0249 188.457 17.8052 187.694 17.3659C186.93 16.9034 186.329 16.2906 185.89 15.5276C185.451 14.7645 185.231 13.9321 185.231 13.0303V8.00093C185.231 7.076 185.451 6.24356 185.89 5.50361C186.329 4.74054 186.93 4.13933 187.694 3.69999C188.457 3.23752 189.289 3.00629 190.191 3.00629L205.209 0.824982C206.111 0.824982 206.932 1.05621 207.672 1.51868C208.435 1.95802 209.048 2.55923 209.51 3.3223C209.973 4.06225 210.204 4.89469 210.204 5.81962V7.93541H205.14V6.06242C205.14 5.99305 205.117 5.9468 205.071 5.92368C205.024 5.87743 204.978 5.85431 204.932 5.85431L190.399 8.03562C190.353 8.03562 190.306 8.05874 190.26 8.10499C190.237 8.12811 190.226 8.17436 190.226 8.24373V12.7875C190.226 12.8337 190.237 12.88 190.26 12.9262C190.306 12.9493 190.353 12.9609 190.399 12.9609H205.209C206.111 12.9609 206.932 13.1921 207.672 13.6546C208.435 14.0939 209.048 14.6951 209.51 15.4582C209.973 16.2213 210.204 17.0537 210.204 17.9555V25.4388C210.204 26.3638 209.973 27.2078 209.51 27.9708C209.048 28.7108 208.435 29.312 207.672 29.7744C206.932 30.2138 206.111 30.4335 205.209 30.4335L190.191 28.0704Z" fill="#980000"/>
<path d="M15.3338 31.5731C14.5087 31.5731 13.7471 31.33 13.049 30.8439C12.3509 30.3323 11.8008 29.6671 11.3989 28.8484C10.9969 28.0042 10.796 25.4764 10.796 24.453V22.1122H15.3655V25.7784C15.3655 25.8552 15.3761 25.9192 15.3973 25.9703C15.4396 25.9959 15.4819 26.0087 15.5242 26.0087L28.8204 24.4147C28.8627 24.4147 28.905 24.4019 28.9473 24.3763C28.9896 24.3251 29.0107 24.2612 29.0107 24.1844V19.1573C29.0107 19.1061 28.9896 19.0678 28.9473 19.0422C28.905 18.991 28.8627 18.9654 28.8204 18.9654H15.3338C14.5087 18.9654 13.7471 18.7224 13.049 18.2363C12.3509 17.7246 11.8008 17.0467 11.3989 16.2024C10.9969 15.3582 10.796 14.4372 10.796 13.4394V7.87508C10.796 6.85175 10.9969 4.33672 11.3989 3.51806C11.8008 2.67381 12.3509 2.00864 13.049 1.52256C13.7471 1.0109 14.5087 0.755066 15.3338 0.755066L29.0742 2.3491C29.8993 2.3491 30.6503 2.60493 31.3273 3.1166C32.0254 3.60268 32.586 4.26784 33.0091 5.11209C33.4322 5.93076 33.6438 6.85175 33.6438 7.87508V10.216H29.0107V8.14371C29.0107 8.06696 28.9896 8.01579 28.9473 7.99021C28.905 7.93904 28.8627 7.91346 28.8204 7.91346L15.5242 6.31942C15.4819 6.31942 15.4396 6.34501 15.3973 6.39617C15.3761 6.42176 15.3655 6.47292 15.3655 6.54967V13.1708C15.3655 13.222 15.3761 13.2732 15.3973 13.3243C15.4396 13.3499 15.4819 13.3627 15.5242 13.3627H29.0742C29.8993 13.3627 30.6503 13.6185 31.3273 14.1302C32.0254 14.6163 32.586 15.2814 33.0091 16.1257C33.4322 16.9699 33.6438 17.8909 33.6438 18.8887V24.453C33.6438 25.4764 33.4322 26.4102 33.0091 27.2544C32.586 28.0731 32.0254 28.7382 31.3273 29.2499C30.6503 29.736 29.8993 29.979 29.0742 29.979L15.3338 31.5731Z" fill="#1B4B66"/>
</svg>
